<?xml version="1.0" standalone="no"?>
<!DOCTYPE svg PUBLIC "-//W3C//DTD SVG 20010904//EN"
 "http://www.w3.org/TR/2001/REC-SVG-20010904/DTD/svg10.dtd">
<svg version="1.0" xmlns="http://www.w3.org/2000/svg"
 width="468pt" height="468pt" viewBox="0 0 468 468"
 preserveAspectRatio="xMidYMid meet">
<metadata>
Created by potrace 1.8, written by Peter Selinger 2001-2007
</metadata>
<g transform="translate(0,468) scale(0.034590,-0.034590)"
fill="#000000" stroke="none">
<path d="M7424 13515 c-14 -10 -47 -14 -119 -15 -71 0 -107 -4 -121 -14 -12
-9 -57 -16 -115 -20 -171 -9 -231 -19 -276 -49 -24 -15 -53 -27 -66 -27 -13 0
-32 -7 -43 -15 -10 -8 -35 -15 -54 -15 -52 -1 -122 -39 -141 -77 -12 -23 -19
-29 -27 -21 -8 8 -20 3 -42 -16 -30 -25 -44 -31 -64 -27 -19 4 -82 -35 -121
-74 -23 -22 -99 -94 -170 -160 -123 -115 -155 -146 -193 -190 -66 -76 -81 -99
-87 -135 -5 -30 -14 -44 -33 -54 -40 -21 -65 -52 -111 -138 -40 -76 -41 -79
-41 -180 -1 -75 -5 -108 -15 -122 -12 -15 -15 -52 -15 -159 0 -138 0 -140 30
-189 17 -26 30 -55 30 -62 0 -15 26 -72 81 -181 17 -33 44 -85 60 -116 15 -31
40 -64 54 -73 14 -9 25 -23 25 -30 0 -25 50 -75 98 -100 26 -13 67 -35 92 -50
25 -14 59 -33 75 -42 17 -9 45 -30 63 -45 23 -21 43 -29 70 -29 21 0 44 -6 50
-12 18 -18 134 -30 277 -30 143 0 259 12 277 30 6 6 27 12 46 12 45 0 114 42
184 112 32 32 63 58 69 58 6 0 39 27 74 60 42 41 68 76 80 108 10 26 21 52 25
57 4 6 24 40 44 77 36 67 36 68 36 191 0 93 -4 128 -15 143 -8 10 -15 34 -15
52 0 65 -88 182 -137 182 -15 0 -37 7 -47 15 -11 8 -30 15 -42 15 -13 0 -34 5
-48 11 -36 17 -77 -3 -120 -59 -30 -38 -36 -53 -36 -94 0 -39 5 -54 25 -72 14
-13 25 -30 25 -37 0 -8 7 -25 16 -38 16 -22 16 -25 0 -51 -9 -16 -16 -41 -16
-57 0 -21 -9 -36 -30 -51 -30 -22 -74 -29 -84 -13 -4 5 -30 17 -60 26 -41 13
-58 14 -74 6 -27 -15 -206 -14 -251 1 -59 18 -123 52 -131 68 -5 8 -14 35 -21
60 -7 25 -25 66 -41 93 -27 46 -28 51 -28 195 l0 148 111 112 c61 62 117 112
124 112 7 0 37 24 67 53 50 47 84 67 261 153 16 8 60 14 101 14 46 0 79 5 92
15 31 21 282 28 658 19 160 -4 214 -8 230 -19 11 -8 43 -15 71 -15 28 0 59 -7
69 -15 13 -10 43 -15 84 -15 48 0 76 -6 114 -25 27 -14 56 -25 64 -25 8 0 33
-12 57 -27 23 -15 65 -30 92 -35 94 -14 120 -21 155 -43 19 -12 60 -34 91 -49
33 -15 75 -47 102 -76 25 -28 54 -50 64 -50 10 0 36 -11 58 -25 22 -13 47 -25
55 -25 41 -1 158 -74 230 -145 43 -41 85 -75 93 -75 9 0 25 -13 36 -29 11 -15
35 -34 53 -42 37 -15 527 -502 562 -557 12 -21 30 -57 40 -82 10 -25 28 -56
41 -70 13 -14 37 -52 54 -86 17 -34 42 -69 56 -78 14 -9 25 -23 25 -30 0 -7 9
-25 21 -40 11 -14 37 -59 58 -98 20 -40 42 -82 48 -93 16 -30 33 -89 33 -113
0 -12 12 -36 28 -54 49 -59 82 -148 82 -222 0 -47 32 -118 65 -146 8 -7 15
-23 15 -36 0 -14 14 -50 30 -81 28 -52 30 -63 30 -165 0 -75 4 -118 14 -136 8
-15 22 -53 31 -84 9 -32 21 -60 26 -64 5 -3 9 -141 9 -318 0 -259 3 -315 15
-332 11 -14 14 -51 14 -154 0 -103 -3 -140 -14 -154 -8 -11 -15 -29 -15 -41 0
-12 -5 -26 -11 -32 -19 -19 -32 -92 -36 -207 -3 -73 -9 -116 -19 -130 -8 -11
-14 -43 -14 -71 0 -28 -7 -59 -15 -69 -8 -11 -15 -30 -15 -42 0 -13 -4 -25 -9
-28 -9 -6 -41 -96 -41 -116 0 -6 -11 -28 -25 -50 -31 -49 -55 -115 -55 -155 0
-16 -7 -39 -15 -49 -8 -11 -15 -27 -15 -36 0 -20 -30 -79 -58 -115 -12 -15
-22 -33 -22 -40 0 -6 -9 -20 -20 -30 -29 -26 -70 -100 -70 -125 0 -12 -11 -44
-25 -72 -14 -27 -25 -55 -25 -61 0 -38 -76 -157 -140 -220 -39 -38 -70 -72
-70 -77 0 -4 -16 -27 -35 -50 -19 -23 -35 -48 -35 -55 0 -7 -7 -18 -15 -25 -9
-7 -28 -38 -43 -69 -18 -37 -62 -91 -134 -163 -60 -60 -108 -115 -108 -121 0
-7 -12 -20 -28 -29 -108 -69 -254 -200 -298 -270 -13 -20 -34 -42 -46 -49 -13
-6 -32 -20 -44 -31 -20 -18 -34 -19 -210 -14 -222 5 -301 13 -329 32 -11 8
-45 14 -80 14 -37 1 -67 6 -79 15 -29 22 -323 22 -352 0 -28 -21 -420 -21
-448 0 -29 22 -923 22 -952 0 -27 -21 -261 -21 -288 0 -15 11 -48 15 -121 15
-63 0 -105 4 -113 12 -10 10 -59 22 -142 34 -19 3 -50 13 -68 22 -32 16 -34
16 -81 -11 -85 -48 -185 -29 -278 53 -19 17 -42 30 -53 30 -11 0 -24 9 -29 19
-6 10 -24 24 -41 29 -31 11 -70 64 -70 95 0 10 -37 56 -82 102 -61 61 -104 94
-163 125 -44 24 -86 47 -93 53 -11 9 -48 19 -127 34 -16 3 -39 12 -50 19 -11
8 -29 14 -40 14 -11 0 -29 7 -39 15 -25 19 -77 19 -102 0 -26 -20 -172 -20
-198 0 -15 11 -51 15 -150 15 -99 1 -136 4 -150 15 -33 25 -81 19 -119 -15
-22 -19 -46 -30 -65 -30 -17 0 -52 -11 -79 -24 -53 -27 -183 -155 -183 -180 0
-9 -7 -16 -15 -16 -20 0 -83 -57 -91 -83 -4 -11 -19 -41 -34 -66 -15 -26 -32
-66 -39 -91 -7 -25 -19 -57 -27 -72 -8 -14 -14 -34 -14 -45 0 -10 -7 -27 -15
-37 -8 -11 -15 -36 -15 -55 0 -20 -7 -45 -15 -55 -21 -28 -21 -244 0 -272 8
-10 15 -34 15 -52 0 -19 6 -46 14 -60 8 -15 17 -39 20 -53 3 -14 27 -48 54
-75 27 -28 57 -70 67 -97 10 -26 22 -50 26 -53 15 -9 10 -117 -6 -138 -8 -11
-15 -36 -15 -55 0 -37 -14 -90 -36 -133 -20 -38 -20 -319 0 -356 8 -15 22 -53
31 -85 9 -31 24 -61 33 -66 10 -5 26 -27 37 -48 11 -21 36 -47 56 -58 20 -11
54 -32 75 -46 22 -15 71 -41 108 -59 65 -30 72 -31 169 -27 144 6 178 16 236
70 27 26 61 49 74 53 26 6 107 1 182 -11 86 -14 165 -73 165 -123 0 -10 7 -27
15 -38 8 -10 15 -41 15 -69 0 -28 6 -59 14 -70 7 -11 16 -38 19 -60 9 -69 24
-126 36 -138 6 -6 11 -27 11 -47 0 -20 7 -45 15 -56 8 -10 15 -28 15 -40 0
-11 7 -29 15 -40 8 -10 15 -32 15 -49 0 -38 23 -104 53 -153 12 -20 35 -64 51
-97 16 -33 35 -73 42 -88 8 -16 14 -35 14 -43 0 -8 9 -32 19 -52 29 -55 39
-103 52 -254 12 -143 9 -208 -15 -261 -8 -18 -17 -53 -21 -80 -5 -40 -11 -50
-38 -64 -18 -9 -39 -25 -47 -37 -17 -25 -75 -89 -150 -167 -54 -56 -98 -105
-221 -244 -34 -38 -83 -91 -108 -116 -25 -25 -71 -74 -101 -109 -58 -68 -168
-188 -210 -230 -14 -14 -47 -52 -75 -85 -27 -33 -87 -98 -132 -145 -121 -127
-147 -158 -159 -193 -6 -19 -27 -43 -52 -60 -55 -37 -192 -174 -192 -192 0
-22 -168 -185 -190 -185 -11 0 -20 5 -20 10 0 6 -7 10 -15 10 -8 0 -15 -3 -15
-8 0 -13 -94 -69 -130 -77 -19 -4 -88 -10 -152 -13 -72 -5 -122 -12 -130 -19
-7 -8 -38 -13 -78 -13 -42 0 -73 -5 -87 -15 -39 -28 -121 -65 -141 -65 -33 0
-107 -42 -136 -77 -15 -18 -37 -33 -47 -33 -11 0 -30 -11 -43 -25 -33 -35
-130 -85 -166 -85 -24 0 -41 -10 -72 -45 -23 -25 -47 -45 -54 -45 -42 0 -124
-120 -124 -183 0 -18 -7 -41 -15 -51 -22 -29 -18 -50 18 -94 17 -23 46 -59 62
-82 46 -64 69 -72 188 -67 126 6 213 19 229 35 7 7 28 12 48 12 20 0 45 7 56
15 12 9 42 14 79 15 35 0 69 6 81 14 11 8 51 17 89 20 175 14 235 22 247 33 6
7 35 13 63 13 30 0 59 6 71 15 12 9 43 14 84 15 40 0 74 6 86 14 11 8 49 17
84 20 186 16 230 22 242 33 6 7 33 13 60 13 29 0 64 8 90 22 26 13 134 113
269 246 124 123 234 229 245 234 46 25 121 78 143 102 14 14 31 26 38 26 8 0
35 20 61 44 26 24 61 50 77 59 17 8 55 42 86 74 32 34 80 71 113 88 38 19 94
65 163 132 73 73 111 103 128 103 13 0 36 11 52 24 15 13 38 26 51 30 12 4 27
16 32 26 6 11 30 28 55 39 33 14 46 27 51 48 7 28 17 43 82 124 17 23 32 46
32 52 0 6 29 41 65 78 36 37 65 74 65 82 0 8 7 20 16 28 8 7 31 35 50 63 70
101 86 122 135 174 27 30 49 59 49 65 0 5 25 36 55 68 30 32 55 64 55 73 0 9
11 23 25 32 23 15 43 49 104 171 9 18 28 37 43 44 30 12 108 92 108 110 0 6
11 33 25 61 16 31 25 67 25 96 0 26 7 56 15 66 8 11 15 30 15 42 0 13 4 25 9
28 5 3 23 31 40 61 31 54 31 57 31 193 0 101 -4 143 -14 157 -8 11 -16 45 -19
75 -12 131 -35 176 -146 286 -39 39 -71 76 -71 83 0 7 -24 38 -54 69 -29 31
-56 71 -60 87 -20 85 -20 86 10 111 17 14 43 23 62 24 19 0 46 6 60 14 15 8
39 17 54 20 15 3 65 44 118 96 50 49 96 90 101 90 5 0 28 17 52 39 23 21 52
41 64 45 12 4 25 17 29 29 8 27 113 132 141 141 11 4 25 16 30 29 24 52 94
115 166 151 40 20 80 36 88 36 8 0 24 6 34 14 53 37 397 37 450 0 10 -8 29
-14 40 -14 11 -1 39 -18 63 -39 38 -35 42 -43 42 -84 0 -54 -14 -90 -52 -135
-15 -18 -28 -40 -28 -49 0 -34 -70 -173 -112 -221 -15 -18 -28 -41 -28 -52 0
-11 -9 -24 -19 -30 -11 -5 -23 -20 -27 -32 -3 -12 -20 -43 -35 -69 -16 -25
-29 -57 -29 -69 0 -25 -16 -83 -32 -113 -5 -10 -23 -44 -40 -75 -31 -56 -45
-100 -55 -175 -3 -21 -18 -63 -34 -92 -24 -46 -29 -66 -29 -128 0 -43 -5 -78
-12 -85 -9 -9 -9 -17 1 -35 10 -20 10 -28 0 -45 -9 -15 -10 -24 -2 -34 8 -10
8 -18 -3 -32 -18 -26 -18 -67 1 -92 8 -10 15 -34 15 -52 0 -18 13 -57 29 -87
16 -29 31 -71 34 -92 8 -60 23 -116 35 -138 6 -11 13 -32 16 -46 6 -29 577
-607 638 -645 21 -13 44 -37 53 -53 23 -46 52 -61 120 -61 37 -1 67 -6 79 -15
12 -9 42 -15 72 -15 47 0 53 -2 56 -22 2 -15 11 -24 24 -26 16 -2 24 -13 28
-38 4 -19 11 -34 16 -34 6 0 10 -7 10 -16 0 -8 9 -36 21 -62 11 -26 24 -56 29
-67 5 -11 16 -44 25 -74 10 -29 24 -65 31 -80 8 -14 14 -34 14 -43 0 -9 5 -20
10 -23 19 -12 10 -45 -14 -56 -13 -6 -27 -20 -29 -31 -5 -17 -14 -19 -101 -17
-64 2 -101 -2 -108 -9 -7 -7 -28 -12 -48 -12 -19 0 -53 -5 -75 -11 -52 -14
-127 -26 -244 -39 -52 -6 -99 -14 -105 -19 -6 -5 -28 -12 -49 -16 -20 -4 -40
-11 -43 -16 -3 -5 -24 -9 -47 -9 -23 -1 -72 -7 -109 -14 -59 -11 -74 -19 -120
-62 -29 -27 -75 -67 -101 -89 -32 -26 -60 -61 -82 -104 -18 -36 -50 -98 -70
-137 -32 -62 -35 -76 -27 -105 11 -42 125 -160 179 -187 21 -10 68 -35 105
-55 67 -37 67 -37 191 -37 93 0 128 4 143 15 14 10 48 14 125 15 77 0 110 4
125 15 13 10 46 14 109 15 63 0 97 4 112 15 17 12 78 15 329 18 309 4 414 13
436 35 7 7 26 12 44 12 62 0 124 44 267 189 l139 140 -6 53 c-18 170 -22 198
-34 210 -7 7 -12 38 -12 73 0 38 -5 68 -15 81 -8 10 -15 35 -15 54 0 20 -6 44
-14 55 -7 11 -16 38 -19 60 -9 69 -24 126 -36 138 -6 6 -11 27 -11 47 0 20 -7
45 -15 56 -8 10 -15 30 -15 44 0 14 -6 34 -14 45 -7 11 -16 38 -19 60 -9 69
-24 126 -36 138 -6 6 -11 19 -11 29 0 11 -18 52 -40 93 -22 41 -40 83 -40 95
0 11 -13 46 -30 77 -16 31 -30 62 -30 70 0 8 -7 27 -15 41 -28 52 -65 139 -65
154 0 8 -7 23 -15 34 -8 10 -15 31 -15 46 0 19 -19 47 -67 98 -73 77 -92 105
-93 133 0 9 -43 59 -95 111 -67 66 -95 101 -95 118 0 13 -6 33 -14 44 -12 17
-12 22 0 39 8 10 14 28 14 39 0 24 18 82 36 118 8 14 14 35 14 47 0 11 14 43
30 69 18 30 30 63 30 84 0 47 25 105 51 118 11 7 29 29 38 51 10 21 30 50 44
63 15 14 27 36 27 48 0 13 9 42 20 63 22 44 136 159 166 169 30 9 84 124 84
179 0 18 7 41 15 51 8 11 15 27 15 36 0 39 69 140 95 140 40 0 125 123 125
182 0 18 7 42 15 52 8 11 15 36 15 55 0 20 7 45 15 55 8 11 15 36 15 55 0 37
14 90 36 133 8 14 14 55 14 90 0 36 5 69 12 76 9 9 9 15 0 24 -8 8 -12 57 -12
155 0 141 0 143 25 159 14 9 28 27 31 40 3 13 14 26 25 29 10 3 72 60 137 126
65 65 125 119 131 119 27 0 138 120 156 168 10 26 28 63 40 82 29 45 113 130
129 130 7 0 44 30 83 67 73 71 123 146 123 184 0 12 18 41 40 65 22 24 40 48
40 54 0 5 14 32 30 58 17 27 30 54 30 60 0 6 33 44 73 84 71 70 117 139 117
176 0 9 7 26 15 36 8 11 15 37 15 59 0 48 12 71 62 124 40 40 52 72 65 166 3
21 18 63 34 92 16 30 29 63 29 74 0 11 4 22 9 25 4 3 16 27 26 53 10 26 31 63
47 81 15 18 28 43 28 55 0 12 7 31 15 41 8 11 15 31 15 44 0 13 11 46 25 74
14 27 25 64 25 81 0 18 7 41 15 51 8 11 15 36 15 56 0 20 6 42 12 48 7 7 16
41 20 75 15 122 21 152 34 172 8 11 14 46 14 85 1 41 6 72 15 84 11 14 15 47
15 110 1 64 5 97 15 110 13 17 15 86 15 436 0 350 -2 419 -15 436 -11 14 -14
49 -15 135 0 85 -4 120 -15 135 -10 13 -14 46 -15 109 0 60 -5 97 -14 110 -7
11 -16 38 -19 60 -4 22 -10 66 -15 98 -4 31 -13 62 -20 69 -7 7 -12 21 -12 33
0 12 -7 30 -15 41 -8 10 -15 35 -15 54 0 20 -6 44 -14 55 -7 11 -16 34 -19 50
-18 93 -27 119 -51 144 -14 15 -26 36 -26 47 0 10 -12 37 -25 59 -15 24 -25
55 -25 78 0 22 -12 60 -30 94 -16 31 -30 62 -30 69 0 8 -12 38 -27 66 -14 29
-33 67 -41 83 -8 17 -32 62 -53 102 -21 40 -39 84 -39 98 0 53 -50 115 -212
264 -4 3 -29 31 -55 63 -58 68 -93 123 -93 147 0 9 -7 26 -15 37 -8 10 -15 31
-15 46 0 14 -11 39 -24 55 -13 15 -26 38 -30 50 -4 12 -17 25 -29 28 -31 10
-315 293 -331 331 -8 18 -26 36 -44 43 -17 7 -33 23 -36 36 -3 13 -16 27 -29
30 -12 4 -44 28 -72 54 -27 26 -68 60 -90 75 -22 15 -67 47 -100 72 -33 24
-76 55 -95 68 -19 13 -61 49 -94 80 -60 58 -165 116 -209 116 -16 0 -35 14
-56 40 -20 25 -45 43 -69 50 -20 5 -50 19 -67 30 -16 11 -39 20 -51 20 -11 0
-31 11 -43 24 -13 14 -49 32 -80 41 -31 9 -68 23 -83 31 -14 8 -33 14 -42 14
-9 0 -38 14 -64 30 -39 24 -61 30 -104 30 -36 0 -60 5 -68 15 -6 8 -31 26 -55
40 -37 21 -56 25 -122 25 -49 0 -84 5 -91 12 -14 14 -105 27 -241 34 -58 4
-103 11 -115 20 -14 9 -48 14 -109 14 -63 0 -94 4 -112 16 -22 14 -26 14 -53
-2 -27 -16 -31 -16 -53 0 -29 20 -78 21 -105 2 -17 -12 -22 -12 -39 0 -24 17
-27 17 -51 -1z"/>
<path d="M5050 3010 c-23 -27 -50 -50 -60 -50 -11 0 -67 -48 -127 -108 -71
-70 -125 -116 -158 -132 -28 -13 -84 -57 -127 -99 -42 -41 -90 -81 -105 -90
-15 -8 -66 -52 -111 -98 -57 -56 -91 -83 -107 -83 -13 0 -37 -11 -53 -25 -17
-14 -35 -25 -41 -25 -6 0 -36 -22 -66 -50 -30 -27 -60 -50 -65 -50 -6 0 -27
-15 -47 -33 -21 -18 -50 -41 -65 -50 -34 -21 -125 -22 -152 -2 -27 20 -183 21
-211 1 -20 -13 -50 -19 -172 -34 -34 -4 -68 -13 -75 -20 -8 -8 -44 -12 -103
-12 -65 0 -97 -4 -111 -15 -10 -8 -31 -15 -46 -15 -17 0 -44 -17 -80 -49 -52
-49 -73 -65 -174 -135 -55 -38 -104 -108 -104 -149 0 -30 43 -118 66 -138 10
-8 57 -17 113 -22 81 -7 144 -9 364 -9 254 0 546 -10 565 -20 17 -9 25 -9 34
0 7 7 31 12 55 12 40 0 47 4 115 77 40 42 91 95 113 118 22 23 52 57 66 76 15
19 67 76 115 127 49 52 116 125 149 163 33 38 108 119 168 180 59 61 107 115
107 119 0 7 16 24 170 186 47 49 102 110 122 134 20 25 49 59 63 75 75 84 80
94 80 171 -1 78 -18 124 -46 124 -9 0 -36 -22 -59 -50z"/>
<path d="M8284 1786 c-12 -9 -57 -17 -115 -20 -173 -9 -268 -21 -281 -33 -7
-8 -41 -13 -88 -13 -52 0 -82 -5 -96 -15 -12 -9 -44 -14 -90 -15 -59 0 -83 -5
-133 -30 -53 -27 -64 -37 -90 -88 -16 -31 -43 -84 -60 -117 -16 -33 -41 -84
-55 -112 l-25 -53 27 -31 c14 -18 40 -37 57 -45 17 -7 39 -22 49 -33 11 -12
26 -21 34 -21 8 0 50 31 93 70 81 71 88 75 173 84 42 5 105 22 171 46 22 9 95
20 315 50 80 11 153 25 162 30 10 6 38 10 62 10 37 0 46 -4 52 -22 6 -20 7
-21 17 -2 14 27 13 27 54 33 44 7 51 25 29 73 -8 18 -22 60 -32 93 -9 33 -20
65 -24 70 -4 6 -11 21 -15 35 -15 48 -50 70 -113 70 -34 0 -66 -6 -78 -14z"/>
</g>
</svg>
